<?xml version="1.0" encoding="UTF-8"?>
<svg width="51px" height="60px" viewBox="0 0 51 60" version="1.1" xmlns="http://www.w3.org/2000/svg" xmlns:xlink="http://www.w3.org/1999/xlink">
    <!-- Generator: Sketch 53.2 (72643) - https://sketchapp.com -->
    <title>Group 15</title>
    <desc>Created with Sketch.</desc>
    <g id="Page-1" stroke="none" stroke-width="1" fill="none" fill-rule="evenodd">
        <g id="01-Single-page_Dev-school" transform="translate(-747.000000, -1021.000000)" fill="#DD80EF">
            <g id="Group-15" transform="translate(747.000000, 1021.000000)">
                <path d="M4.58645833,0.375 L4.58645833,11.5 L0.247916667,11.5 L0.247916667,16.25 L4.58645833,16.25 L4.58645833,22.125 L-1.63424829e-13,22.125 L-1.63424829e-13,26.875 L4.58645833,26.875 L4.58645833,32.75 L-1.63424829e-13,32.75 L-1.63424829e-13,37.5 L4.58645833,37.5 L4.58645833,43.375 L-1.63424829e-13,43.375 L-1.63424829e-13,48.125 L4.58645833,48.125 L4.58645833,59.25 L50.6989583,59.25 L50.6989583,1.42108547e-14 L4.58645833,1.42108547e-14 L4.58645833,0.375 Z M45.9885417,54.875 L9.42083333,54.875 L9.42083333,48.5 L13.759375,48.5 L13.759375,43.75 L9.42083333,43.75 L9.42083333,37.875 L13.759375,37.875 L13.759375,33.125 L9.42083333,33.125 L9.42083333,27.25 L13.759375,27.25 L13.759375,22.5 L9.42083333,22.5 L9.42083333,16.625 L14.0072917,16.625 L14.0072917,11.875 L9.42083333,11.875 L9.42083333,5.5 L45.9885417,5.5 L45.9885417,54.875 L45.9885417,54.875 Z" id="Shape"></path>
                <path d="M25.4114583,34.375 L21.56875,34.375 C21.4447917,37.625 22.8083333,41.125 27.51875,41.625 L27.51875,43.5 L29.9979167,43.5 L29.9979167,41.625 C33.5927083,41.125 36.071875,38.625 36.071875,35.125 C36.071875,31.625 34.3364583,29.875 31.609375,28.625 C31.3614583,28.5 30.2458333,28 29.9979167,27.875 L29.9979167,22 C31.1135417,22.5 31.7333333,23.625 31.7333333,25.125 L35.328125,25.125 C35.4520833,21.875 33.9645833,19 29.9979167,18.5 L29.9979167,16.625 L27.51875,16.625 L27.51875,18.5 C24.0479167,19 21.8166667,21.375 21.8166667,24.5 C21.8166667,27.625 23.3041667,29.5 25.9072917,30.75 L27.51875,31.5 L27.51875,38.125 C25.9072917,37.625 25.4114583,36.125 25.4114583,34.375 L25.4114583,34.375 Z M30.121875,32.5 C31.3614583,33.125 32.1052083,33.875 32.1052083,35.25 C32.1052083,36.625 31.3614583,37.5 30.121875,37.875 L30.121875,32.5 L30.121875,32.5 Z M25.7833333,24.25 C25.7833333,23 26.403125,22.25 27.51875,21.875 L27.51875,26.75 C26.5270833,26.125 25.7833333,25.5 25.7833333,24.25 L25.7833333,24.25 Z" id="Shape"></path>
            </g>
        </g>
    </g>
</svg>