<?xml version="1.0" encoding="UTF-8"?>
<svg width="75px" height="60px" viewBox="0 0 75 60" version="1.1" xmlns="http://www.w3.org/2000/svg" xmlns:xlink="http://www.w3.org/1999/xlink">
    <!-- Generator: Sketch 53.2 (72643) - https://sketchapp.com -->
    <title>Papas</title>
    <desc>Created with Sketch.</desc>
    <g id="Page-1" stroke="none" stroke-width="1" fill="none" fill-rule="evenodd">
        <g id="01-Single-page_Dev-school" transform="translate(-196.000000, -1021.000000)" fill="#DD80EF">
            <path d="M240.726317,1042.10438 C240.726507,1042.1038 240.726697,1042.10322 240.726887,1042.10264 C242.994372,1039.46706 246.359845,1037.75258 250.161284,1037.75258 C256.968352,1037.75258 262.506736,1043.13357 262.506736,1049.7472 C262.506736,1053.87539 260.347666,1057.52174 257.069847,1059.67996 C265.170973,1062.45899 271,1069.9489 271,1078.75885 L271,1081 L253.69284,1081 L229.322569,1081 L196,1081 L196,1078.75885 C196,1065.80054 205.11146,1054.8996 217.42923,1051.70596 C211.946208,1049.04572 208.163222,1043.55491 208.163222,1037.20798 C208.163222,1028.27028 215.646152,1021 224.847573,1021 C234.046688,1021 241.529618,1028.27028 241.529618,1037.20798 C241.529618,1038.91797 241.236667,1040.55625 240.726887,1042.10264 C239.883541,1043.08361 239.196807,1044.18703 238.707674,1045.39037 C239.197436,1044.18774 239.883651,1043.08492 240.726317,1042.10438 Z M238.690619,1045.43257 C238.515196,1045.86828 238.365524,1046.317 238.243495,1046.77768 C238.244202,1046.77675 238.244908,1046.77582 238.245614,1046.77489 C238.366903,1046.31519 238.515879,1045.8674 238.690619,1045.43257 Z M239.835389,1044.24779 C239.837667,1044.2433 239.839943,1044.23881 239.842217,1044.23432 C239.839946,1044.23881 239.837672,1044.2433 239.835397,1044.24779 Z M240.726317,1042.10438 C240.484749,1042.84019 240.187933,1043.55084 239.842217,1044.23432 C240.188695,1043.5503 240.486138,1042.83907 240.72781,1042.10264 C240.727312,1042.10322 240.726814,1042.1038 240.726317,1042.10438 Z M238.707674,1045.39037 C238.701962,1045.40442 238.696277,1045.41849 238.690619,1045.43257 C238.696286,1045.41849 238.70198,1045.40443 238.707701,1045.39038 Z M238.245614,1046.77489 C238.245369,1046.77582 238.245124,1046.77675 238.244879,1046.77768 C236.674017,1048.83729 234.644123,1050.55177 232.26361,1051.70596 C234.538014,1052.29314 236.699391,1053.14926 238.715446,1054.22949 C238.138771,1052.84222 237.815833,1051.33169 237.815833,1049.7472 C237.815833,1048.71627 237.991142,1047.73241 238.244879,1046.77768 C238.848776,1045.98356 239.383644,1045.13879 239.835397,1044.24779 C239.383525,1045.13775 238.848645,1045.98159 238.245614,1046.77489 Z M253.595959,1076.51771 L266.222827,1076.51771 C265.101772,1068.88436 258.324691,1062.99462 250.161284,1062.99462 C249.669958,1062.99462 249.183244,1063.01927 248.701144,1063.05961 C247.008027,1063.20753 245.393338,1063.6199 243.889371,1064.23622 C238.731593,1066.34738 234.916313,1070.96414 234.099742,1076.51771 L248.973335,1076.51771 L253.595959,1076.51771 Z M200.721812,1076.51771 L229.465584,1076.51771 C230.245248,1069.69789 234.524174,1063.90004 240.521591,1060.84536 C236.291105,1057.34469 230.826536,1055.21336 224.847573,1055.21336 C212.262226,1055.21336 201.886695,1064.58359 200.721812,1076.51771 Z M212.776619,1037.20798 C212.776619,1043.67369 218.192748,1048.93366 224.847573,1048.93366 C231.500092,1048.93366 236.916221,1043.67369 236.916221,1037.20798 C236.916221,1030.74227 231.500092,1025.48229 224.847573,1025.48229 C218.192748,1025.48229 212.776619,1030.74227 212.776619,1037.20798 Z M250.161284,1042.23487 C245.898505,1042.23487 242.42923,1045.60556 242.42923,1049.7472 C242.42923,1053.8866 245.898505,1057.25728 250.161284,1057.25728 C254.424063,1057.25728 257.893338,1053.8866 257.893338,1049.7472 C257.893338,1045.60556 254.424063,1042.23487 250.161284,1042.23487 Z" id="Papas"></path>
        </g>
    </g>
</svg>