<?xml version="1.0" encoding="UTF-8"?>
<svg width="24px" height="24px" viewBox="0 0 24 24" version="1.1" xmlns="http://www.w3.org/2000/svg" xmlns:xlink="http://www.w3.org/1999/xlink">
    <!-- Generator: Sketch 53.2 (72643) - https://sketchapp.com -->
    <title>Shape</title>
    <desc>Created with Sketch.</desc>
    <g id="Page-1" stroke="none" stroke-width="1" fill="none" fill-rule="evenodd">
        <g id="01-Single-page_Dev-school" transform="translate(-922.000000, -3453.000000)" fill="#FFFFFF" fill-rule="nonzero">
            <g id="Group-39" transform="translate(896.000000, 3434.000000)">
                <path d="M38,21.163 C41.204,21.163 41.584,21.175 42.85,21.233 C46.102,21.381 47.621,22.924 47.769,26.152 C47.827,27.417 47.838,27.797 47.838,31.001 C47.838,34.206 47.826,34.585 47.769,35.85 C47.62,39.075 46.105,40.621 42.85,40.769 C41.584,40.827 41.206,40.839 38,40.839 C34.796,40.839 34.416,40.827 33.151,40.769 C29.891,40.62 28.38,39.07 28.232,35.849 C28.174,34.584 28.162,34.205 28.162,31 C28.162,27.796 28.175,27.417 28.232,26.151 C28.381,22.924 29.896,21.38 33.151,21.232 C34.417,21.175 34.796,21.163 38,21.163 L38,21.163 Z M38,19 C34.741,19 34.333,19.014 33.053,19.072 C28.695,19.272 26.273,21.69 26.073,26.052 C26.014,27.333 26,27.741 26,31 C26,34.259 26.014,34.668 26.072,35.948 C26.272,40.306 28.69,42.728 33.052,42.928 C34.333,42.986 34.741,43 38,43 C41.259,43 41.668,42.986 42.948,42.928 C47.302,42.728 49.73,40.31 49.927,35.948 C49.986,34.668 50,34.259 50,31 C50,27.741 49.986,27.333 49.928,26.053 C49.732,21.699 47.311,19.273 42.949,19.073 C41.668,19.014 41.259,19 38,19 Z M38,24.838 C34.597,24.838 31.838,27.597 31.838,31 C31.838,34.403 34.597,37.163 38,37.163 C41.403,37.163 44.162,34.404 44.162,31 C44.162,27.597 41.403,24.838 38,24.838 Z M38,35 C35.791,35 34,33.21 34,31 C34,28.791 35.791,27 38,27 C40.209,27 42,28.791 42,31 C42,33.21 40.209,35 38,35 Z M44.406,23.155 C43.61,23.155 42.965,23.8 42.965,24.595 C42.965,25.39 43.61,26.035 44.406,26.035 C45.201,26.035 45.845,25.39 45.845,24.595 C45.845,23.8 45.201,23.155 44.406,23.155 Z" id="Shape"></path>
            </g>
        </g>
    </g>
</svg>