<?xml version="1.0" encoding="UTF-8"?>
<svg width="21px" height="13px" viewBox="0 0 21 13" version="1.1" xmlns="http://www.w3.org/2000/svg" xmlns:xlink="http://www.w3.org/1999/xlink">
    <!-- Generator: Sketch 53.2 (72643) - https://sketchapp.com -->
    <title>Type something</title>
    <desc>Created with Sketch.</desc>
    <g id="Page-1" stroke="none" stroke-width="1" fill="none" fill-rule="evenodd">
        <g id="01-Single-page_Dev-school" transform="translate(-994.000000, -3775.000000)" fill="#444851">
            <g id="Group-19" transform="translate(973.000000, 3757.000000)">
                <path d="M37.1666667,24.5 C37.1666667,24.6736816 37.0998479,24.8273206 36.9662085,24.9609218 L27.6248568,34.2995992 C27.4912174,34.4332004 27.3375343,34.5 27.163803,34.5 C26.9900717,34.5 26.8363886,34.4332004 26.7027491,34.2995992 L25.7004582,33.2975952 C25.5668187,33.163994 25.5,33.0103549 25.5,32.8366733 C25.5,32.6629918 25.5668187,32.5093527 25.7004582,32.3757515 L33.5784651,24.5 L25.7004582,16.6242485 C25.5668187,16.4906473 25.5,16.3370082 25.5,16.1633267 C25.5,15.9896451 25.5668187,15.836006 25.7004582,15.7024048 L26.7027491,14.7004008 C26.8363886,14.5667996 26.9900717,14.5 27.163803,14.5 C27.3375343,14.5 27.4912174,14.5667996 27.6248568,14.7004008 L36.9662085,24.0390782 C37.0998479,24.1726794 37.1666667,24.3263184 37.1666667,24.5 Z" id="Type-something" transform="translate(31.333333, 24.500000) scale(-1, -1) rotate(90.000000) translate(-31.333333, -24.500000) "></path>
            </g>
        </g>
    </g>
</svg>